HIERARCHY
ROOT newVegas:Hips
{
	OFFSET 0.000000 96.479958 0.000000
	CHANNELS 6 Xposition Yposition Zposition Xrotation Yrotation Zrotation
	JOINT newVegas:Pelvis
	{
		OFFSET 0.000000 0.000000 0.000000
		CHANNELS 3 Xrotation Yrotation Zrotation
		JOINT newVegas:LeftUpLeg
		{
			OFFSET 18.735201 -5.666702 -4.541200
			CHANNELS 3 Xrotation Yrotation Zrotation
			JOINT newVegas:LeftLeg
			{
				OFFSET -0.021200 -31.938179 0.493100
				CHANNELS 3 Xrotation Yrotation Zrotation
				JOINT newVegas:LeftFoot
				{
					OFFSET 0.021200 -31.938179 -4.336299
					CHANNELS 3 Xrotation Yrotation Zrotation
					JOINT newVegas:LeftToeBase
					{
						OFFSET 0.943001 -26.722000 15.023500
						CHANNELS 3 Xrotation Yrotation Zrotation
						End Site
						{
							OFFSET 0.000000 30.670183 0.000000
						}
					}
				}
				JOINT newVegas:Left_PantLeg
				{
					OFFSET 0.663870 -9.044666 -1.108900
					CHANNELS 3 Xrotation Yrotation Zrotation
					End Site
					{
						OFFSET 1.415995 20.635357 0.000000
					}
				}
			}
		}
		JOINT newVegas:RightUpLeg
		{
			OFFSET -18.735201 -5.666702 -4.541200
			CHANNELS 3 Xrotation Yrotation Zrotation
			JOINT newVegas:RightLeg
			{
				OFFSET 0.018946 -31.938133 0.493100
				CHANNELS 3 Xrotation Yrotation Zrotation
				JOINT newVegas:RightFoot
				{
					OFFSET -0.018946 -31.938126 -4.336299
					CHANNELS 3 Xrotation Yrotation Zrotation
					JOINT newVegas:RightToeBase
					{
						OFFSET -0.943001 -26.722004 15.023500
						CHANNELS 3 Xrotation Yrotation Zrotation
						End Site
						{
							OFFSET 0.000000 30.670187 0.000000
						}
					}
				}
				JOINT newVegas:Right_PantLeg
				{
					OFFSET -0.661674 -9.044716 -1.108900
					CHANNELS 3 Xrotation Yrotation Zrotation
					End Site
					{
						OFFSET -1.415958 20.635269 0.000000
					}
				}
			}
		}
	}
	JOINT newVegas:Spine
	{
		OFFSET 0.000000 10.199997 -0.299500
		CHANNELS 3 Xrotation Yrotation Zrotation
		JOINT newVegas:Spine1
		{
			OFFSET 0.000000 11.900002 -1.516600
			CHANNELS 3 Xrotation Yrotation Zrotation
			JOINT newVegas:Spine2
			{
				OFFSET 0.000000 13.600006 -2.842500
				CHANNELS 3 Xrotation Yrotation Zrotation
				JOINT newVegas:Neck
				{
					OFFSET 0.000000 9.624100 -2.890100
					CHANNELS 3 Xrotation Yrotation Zrotation
					JOINT newVegas:Head
					{
						OFFSET 0.000000 14.068802 -1.351900
						CHANNELS 3 Xrotation Yrotation Zrotation
						JOINT newVegas:Hair_Back
						{
							OFFSET 0.000000 3.231903 -17.524799
							CHANNELS 3 Xrotation Yrotation Zrotation
							End Site
							{
								OFFSET 0.000000 19.849884 0.000000
							}
						}
						JOINT newVegas:Hair_Front
						{
							OFFSET 0.000000 31.260406 4.573800
							CHANNELS 3 Xrotation Yrotation Zrotation
							JOINT newVegas:Hair_Front1
							{
								OFFSET 0.000000 2.284103 11.993300
								CHANNELS 3 Xrotation Yrotation Zrotation
								JOINT newVegas:Hair_Front2
								{
									OFFSET 0.000000 2.284103 11.993300
									CHANNELS 3 Xrotation Yrotation Zrotation
									End Site
									{
										OFFSET 0.000000 12.208862 0.000000
									}
								}
							}
						}
						JOINT newVegas:Jowel
						{
							OFFSET 0.000000 -7.458206 6.864100
							CHANNELS 3 Xrotation Yrotation Zrotation
							End Site
							{
								OFFSET 0.000000 19.849884 0.000000
							}
						}
					}
				}
				JOINT newVegas:LeftShoulder
				{
					OFFSET 15.263000 10.923401 -0.547700
					CHANNELS 3 Xrotation Yrotation Zrotation
					JOINT newVegas:LeftArm
					{
						OFFSET 25.438599 -2.830597 -13.032500
						CHANNELS 3 Xrotation Yrotation Zrotation
						JOINT newVegas:LeftForeArm
						{
							OFFSET 29.960503 0.000000 0.000000
							CHANNELS 3 Xrotation Yrotation Zrotation
							JOINT newVegas:LeftHand
							{
								OFFSET 27.849251 0.000000 0.000000
								CHANNELS 3 Xrotation Yrotation Zrotation
								JOINT newVegas:LeftHandThumb1
								{
									OFFSET 4.487587 -3.305161 6.305391
									CHANNELS 3 Xrotation Yrotation Zrotation
									JOINT newVegas:LeftHandThumb2
									{
										OFFSET 5.480453 -3.164139 3.164143
										CHANNELS 3 Xrotation Yrotation Zrotation
										JOINT newVegas:LeftHandThumb3
										{
											OFFSET 5.159721 -2.978973 2.978967
											CHANNELS 3 Xrotation Yrotation Zrotation
											End Site
											{
												OFFSET 2.494507 5.926697 1.738678
											}
										}
									}
								}
								JOINT newVegas:LeftHandIndex1
								{
									OFFSET 18.578728 -0.527832 5.208049
									CHANNELS 3 Xrotation Yrotation Zrotation
									JOINT newVegas:LeftHandIndex2
									{
										OFFSET 3.192009 0.000000 0.000000
										CHANNELS 3 Xrotation Yrotation Zrotation
										JOINT newVegas:LeftHandIndex3
										{
											OFFSET 3.835129 0.000000 0.000000
											CHANNELS 3 Xrotation Yrotation Zrotation
											End Site
											{
												OFFSET -0.034599 3.816971 0.371180
											}
										}
									}
								}
								JOINT newVegas:LeftHandMiddle1
								{
									OFFSET 18.476105 0.000000 0.000000
									CHANNELS 3 Xrotation Yrotation Zrotation
									JOINT newVegas:LeftHandMiddle2
									{
										OFFSET 3.324875 0.000000 0.000000
										CHANNELS 3 Xrotation Yrotation Zrotation
										JOINT newVegas:LeftHandMiddle3
										{
											OFFSET 4.596550 0.000000 0.000000
											CHANNELS 3 Xrotation Yrotation Zrotation
											End Site
											{
												OFFSET 0.057701 4.578827 0.399218
											}
										}
									}
								}
								JOINT newVegas:LeftHandRing1
								{
									OFFSET 17.732719 0.121887 -4.201567
									CHANNELS 3 Xrotation Yrotation Zrotation
									JOINT newVegas:LeftHandRing2
									{
										OFFSET 2.733170 0.000000 0.000000
										CHANNELS 3 Xrotation Yrotation Zrotation
										JOINT newVegas:LeftHandRing3
										{
											OFFSET 3.178268 0.000000 0.000000
											CHANNELS 3 Xrotation Yrotation Zrotation
											End Site
											{
												OFFSET 0.119102 3.170624 0.185394
											}
										}
									}
								}
								JOINT newVegas:LeftHandPinky1
								{
									OFFSET 15.989624 -0.606689 -7.535461
									CHANNELS 3 Xrotation Yrotation Zrotation
									JOINT newVegas:LeftHandPinky2
									{
										OFFSET 2.538986 0.000000 0.000000
										CHANNELS 3 Xrotation Yrotation Zrotation
										JOINT newVegas:LeftHandPinky3
										{
											OFFSET 2.593102 0.000000 0.000000
											CHANNELS 3 Xrotation Yrotation Zrotation
											End Site
											{
												OFFSET -0.150902 2.584198 0.152708
											}
										}
									}
								}
							}
							JOINT newVegas:Left_Sleeve
							{
								OFFSET 0.267448 -0.649796 0.577675
								CHANNELS 3 Xrotation Yrotation Zrotation
								End Site
								{
									OFFSET 0.000000 15.991241 0.000000
								}
							}
							JOINT newVegas:Left_CapeC
							{
								OFFSET 15.715958 -8.608795 -6.935905
								CHANNELS 3 Xrotation Yrotation Zrotation
								JOINT newVegas:Left_CapeC1
								{
									OFFSET 0.000000 -8.688499 0.000000
									CHANNELS 3 Xrotation Yrotation Zrotation
									End Site
									{
										OFFSET 0.000000 8.688499 0.000000
									}
								}
							}
						}
						JOINT newVegas:Left_CapeB
						{
							OFFSET 26.118385 -8.608795 -7.079235
							CHANNELS 3 Xrotation Yrotation Zrotation
							JOINT newVegas:Left_CapeB1
							{
								OFFSET 0.000000 -8.688499 0.000000
								CHANNELS 3 Xrotation Yrotation Zrotation
								End Site
								{
									OFFSET 0.000000 8.688499 0.000000
								}
							}
						}
						JOINT newVegas:Left_CapeA
						{
							OFFSET 5.115639 -8.608795 -10.395809
							CHANNELS 3 Xrotation Yrotation Zrotation
							JOINT newVegas:Left_CapeA1
							{
								OFFSET 0.000000 -8.688499 0.000000
								CHANNELS 3 Xrotation Yrotation Zrotation
								End Site
								{
									OFFSET 0.000000 8.688499 0.000000
								}
							}
						}
					}
				}
				JOINT newVegas:RightShoulder
				{
					OFFSET -15.263000 10.923401 -0.547700
					CHANNELS 3 Xrotation Yrotation Zrotation
					JOINT newVegas:RightArm
					{
						OFFSET -25.438599 -2.830597 -13.032500
						CHANNELS 3 Xrotation Yrotation Zrotation
						JOINT newVegas:RightForeArm
						{
							OFFSET -29.960503 0.000000 0.000000
							CHANNELS 3 Xrotation Yrotation Zrotation
							JOINT newVegas:RightHand
							{
								OFFSET -27.849251 0.000000 0.000000
								CHANNELS 3 Xrotation Yrotation Zrotation
								JOINT newVegas:RightHandThumb1
								{
									OFFSET -4.487587 -3.305161 6.305391
									CHANNELS 3 Xrotation Yrotation Zrotation
									JOINT newVegas:RightHandThumb2
									{
										OFFSET -5.480453 -3.164139 3.164143
										CHANNELS 3 Xrotation Yrotation Zrotation
										JOINT newVegas:RightHandThumb3
										{
											OFFSET -5.159721 -2.978973 2.978967
											CHANNELS 3 Xrotation Yrotation Zrotation
											End Site
											{
												OFFSET -2.494507 5.926697 1.738678
											}
										}
									}
								}
								JOINT newVegas:RightHandIndex1
								{
									OFFSET -18.578728 -0.527832 5.208049
									CHANNELS 3 Xrotation Yrotation Zrotation
									JOINT newVegas:RightHandIndex2
									{
										OFFSET -3.192009 0.000000 0.000000
										CHANNELS 3 Xrotation Yrotation Zrotation
										JOINT newVegas:RightHandIndex3
										{
											OFFSET -3.835129 0.000000 0.000000
											CHANNELS 3 Xrotation Yrotation Zrotation
											End Site
											{
												OFFSET 0.034599 3.816971 0.371180
											}
										}
									}
								}
								JOINT newVegas:RightHandMiddle1
								{
									OFFSET -18.476105 0.000000 0.000000
									CHANNELS 3 Xrotation Yrotation Zrotation
									JOINT newVegas:RightHandMiddle2
									{
										OFFSET -3.324875 0.000000 0.000000
										CHANNELS 3 Xrotation Yrotation Zrotation
										JOINT newVegas:RightHandMiddle3
										{
											OFFSET -4.596550 0.000000 0.000000
											CHANNELS 3 Xrotation Yrotation Zrotation
											End Site
											{
												OFFSET -0.057701 4.578827 0.399218
											}
										}
									}
								}
								JOINT newVegas:RightHandRing1
								{
									OFFSET -17.732719 0.121887 -4.201567
									CHANNELS 3 Xrotation Yrotation Zrotation
									JOINT newVegas:RightHandRing2
									{
										OFFSET -2.733170 0.000000 0.000000
										CHANNELS 3 Xrotation Yrotation Zrotation
										JOINT newVegas:RightHandRing3
										{
											OFFSET -3.178268 0.000000 0.000000
											CHANNELS 3 Xrotation Yrotation Zrotation
											End Site
											{
												OFFSET -0.119102 3.170624 0.185394
											}
										}
									}
								}
								JOINT newVegas:RightHandPinky1
								{
									OFFSET -15.989624 -0.606689 -7.535461
									CHANNELS 3 Xrotation Yrotation Zrotation
									JOINT newVegas:RightHandPinky2
									{
										OFFSET -2.538986 0.000000 0.000000
										CHANNELS 3 Xrotation Yrotation Zrotation
										JOINT newVegas:RightHandPinky3
										{
											OFFSET -2.593102 0.000000 0.000000
											CHANNELS 3 Xrotation Yrotation Zrotation
											End Site
											{
												OFFSET 0.150902 2.584198 0.152708
											}
										}
									}
								}
							}
							JOINT newVegas:Right_CapeC
							{
								OFFSET -15.715958 -8.608795 -6.935905
								CHANNELS 3 Xrotation Yrotation Zrotation
								JOINT newVegas:Right_CapeC1
								{
									OFFSET 0.000000 -8.688499 0.000000
									CHANNELS 3 Xrotation Yrotation Zrotation
									End Site
									{
										OFFSET 0.000000 8.688499 0.000000
									}
								}
							}
							JOINT newVegas:Right_Sleeve
							{
								OFFSET -0.267448 -0.649994 0.577675
								CHANNELS 3 Xrotation Yrotation Zrotation
								End Site
								{
									OFFSET 0.000000 15.991302 0.000000
								}
							}
						}
						JOINT newVegas:Right_CapeA
						{
							OFFSET -5.115540 -8.608795 -10.395824
							CHANNELS 3 Xrotation Yrotation Zrotation
							JOINT newVegas:Right_CapeA1
							{
								OFFSET 0.000000 -8.688499 0.000000
								CHANNELS 3 Xrotation Yrotation Zrotation
								End Site
								{
									OFFSET 0.000000 8.688499 0.000000
								}
							}
						}
						JOINT newVegas:Right_CapeB
						{
							OFFSET -26.118187 -8.608795 -7.079266
							CHANNELS 3 Xrotation Yrotation Zrotation
							JOINT newVegas:Right_CapeB1
							{
								OFFSET 0.000000 -8.688499 0.000000
								CHANNELS 3 Xrotation Yrotation Zrotation
								End Site
								{
									OFFSET 0.000000 8.688499 0.000000
								}
							}
						}
					}
				}
				JOINT newVegas:Left_Collar
				{
					OFFSET 18.625099 8.655502 8.828100
					CHANNELS 3 Xrotation Yrotation Zrotation
					JOINT newVegas:Left_Collar1
					{
						OFFSET 14.783401 10.540405 -1.259500
						CHANNELS 3 Xrotation Yrotation Zrotation
						End Site
						{
							OFFSET 0.000000 18.199875 0.000000
						}
					}
				}
				JOINT newVegas:Collar_Back
				{
					OFFSET 0.000000 15.630707 -20.132601
					CHANNELS 3 Xrotation Yrotation Zrotation
					End Site
					{
						OFFSET 0.000000 22.523010 0.000000
					}
				}
				JOINT newVegas:Left_Peck
				{
					OFFSET 17.239599 -5.132599 25.482599
					CHANNELS 3 Xrotation Yrotation Zrotation
					End Site
					{
						OFFSET 0.000000 22.523010 0.000000
					}
				}
				JOINT newVegas:Right_Peck
				{
					OFFSET -17.239599 -5.132202 25.482599
					CHANNELS 3 Xrotation Yrotation Zrotation
					End Site
					{
						OFFSET 0.000000 22.523010 0.000000
					}
				}
				JOINT newVegas:Right_Collar
				{
					OFFSET -18.625099 8.655792 8.828100
					CHANNELS 3 Xrotation Yrotation Zrotation
					JOINT newVegas:Right_Collar1
					{
						OFFSET -14.783401 10.539993 -1.259500
						CHANNELS 3 Xrotation Yrotation Zrotation
						End Site
						{
							OFFSET 0.000000 18.199631 0.000000
						}
					}
				}
			}
		}
		JOINT newVegas:Belly
		{
			OFFSET 0.000000 -6.540398 9.014299
			CHANNELS 3 Xrotation Yrotation Zrotation
			End Site
			{
				OFFSET 0.000000 11.566666 0.000000
			}
		}
	}
	JOINT newVegas:ElvisFacialAnim_Joint
	{
		OFFSET 1.000000 -95.330101 -8.825800
		CHANNELS 3 Xrotation Yrotation Zrotation
		End Site
		{
			OFFSET 0.000000 35.315800 0.000000
		}
	}
}
MOTION
Frames: 4
Frame Time: 0.033333
-0.327225 93.433266 3.929291 -7.208476 -6.686008 2.535520 0.000001 0.000000 0.000000 -12.965769 10.913334 7.624701 17.161624 7.082194 1.418989 4.247964 0.367290 -7.653957 0.000000 0.000000 0.000000 0.000000 -0.000000 0.000001 6.567619 -15.623091 -6.364049 23.339602 -8.745399 -2.737049 -22.080045 -6.755367 9.022428 -0.000000 -0.000002 -0.000000 0.000001 -0.000001 -0.000001 5.301412 1.995350 -1.926693 1.464034 0.754857 -0.644703 1.462532 0.766243 -0.619668 0.948413 0.878594 0.357818 0.948415 0.878595 0.357819 -0.000000 -0.000000 -0.000000 0.948485 0.878594 0.357818 0.948409 0.878596 0.357817 -0.000001 -0.000000 -0.000000 -0.000000 -0.000000 -0.000000 0.098151 -12.682685 -17.581510 5.756354 -1.452546 -41.937717 0.000405 -86.514680 0.000428 -124.582801 -2.355569 13.499650 -12.800134 -17.470109 4.121644 1.058319 0.830660 -1.402466 0.000002 -0.000002 -0.000001 -3.532549 4.254367 -63.954592 3.402111 5.315512 -65.218936 0.000001 -0.000002 0.000001 2.447332 7.300869 -69.364334 3.297860 5.266350 -64.088655 0.000001 -0.000000 0.000003 4.717020 8.075477 -77.582281 2.056305 4.456895 -49.517676 0.000001 -0.000001 0.000003 6.410337 8.363755 -80.414570 1.722738 4.149886 -45.074409 -0.000000 -0.000003 -0.000003 -0.000001 0.000001 -0.000001 -0.000001 0.000001 -0.000001 -0.000002 0.000000 -0.000001 -0.000002 0.000000 -0.000001 -0.000002 0.000000 -0.000001 -0.000002 0.000000 -0.000001 -0.000001 0.000000 -0.000001 0.755000 18.500641 11.537573 10.691048 23.556233 38.362137 0.000172 97.832351 -0.000182 -34.547968 -20.181105 22.178726 20.470502 7.475571 18.843595 4.151737 -12.160914 -33.848000 0.000001 0.000000 0.000003 -0.887204 1.428466 12.684572 1.917420 -3.767464 53.934339 -0.000002 -0.000002 0.000001 0.770892 -5.199579 54.618830 5.567245 -4.567557 101.281269 -0.000000 -0.000001 0.000003 6.904234 -8.529615 63.906986 2.909307 -4.317375 67.934721 -0.000004 0.000001 0.000001 8.373386 -8.171798 73.989923 2.173669 -3.940959 57.745397 -0.000000 -0.000000 0.000003 0.000003 0.000001 0.000003 0.000002 0.000001 0.000003 0.000003 0.000001 0.000001 -0.000004 -0.000002 -0.000001 -0.000004 -0.000002 -0.000000 -0.000004 -0.000002 -0.000001 -0.000004 -0.000002 0.000002 0.000000 -0.000000 0.000000 0.000000 -0.000000 0.000000 0.000000 -0.000000 0.000000 0.000000 -0.000000 0.000000 0.000000 -0.000000 0.000000 0.000000 -0.000000 0.000000 0.000000 -0.000000 0.000000 0.000000 -0.000000 -0.000000 0.000001 0.000000 0.000000 
-0.322645 93.347656 3.864548 -7.142789 -6.788131 2.550081 -0.000001 -0.000000 -0.000000 -13.357871 11.002538 7.896307 17.771222 6.716024 0.999579 3.986795 0.668216 -7.463156 0.000000 -0.000000 0.000000 -0.000000 -0.000001 -0.000000 6.050146 -15.532320 -6.469911 24.048878 -8.689846 -2.795336 -22.358979 -6.794433 9.054028 0.000000 0.000000 0.000000 -0.000000 0.000000 -0.000001 5.378034 2.039090 -1.962704 1.477783 0.769701 -0.645440 1.476057 0.781477 -0.619669 0.893745 0.878471 0.361299 0.893743 0.878471 0.361299 0.000000 -0.000000 -0.000000 0.893743 0.878472 0.361299 0.893745 0.878471 0.361299 0.000000 0.000000 0.000000 0.000000 -0.000000 -0.000000 0.072074 -12.932930 -17.565857 5.492826 -1.092452 -41.913931 0.000291 -86.828643 0.000311 -124.364262 -2.358710 13.865377 -12.800132 -17.470114 4.121638 1.059283 0.835906 -1.401798 0.000000 -0.000001 0.000001 -3.532546 4.254378 -63.954592 3.402085 5.315509 -65.218942 -0.000002 -0.000001 -0.000002 2.447333 7.300866 -69.364334 3.297861 5.266352 -64.088662 0.000001 -0.000002 0.000005 4.717044 8.075502 -77.582288 2.056298 4.456842 -49.517693 -0.000004 -0.000001 -0.000000 6.410349 8.363760 -80.414583 1.722712 4.149880 -45.074385 -0.000003 0.000000 0.000001 -0.000003 0.000000 -0.000000 -0.000003 0.000000 -0.000000 -0.000003 -0.000000 0.000000 0.000001 -0.000001 -0.000001 0.000002 -0.000001 -0.000001 0.000001 -0.000001 -0.000001 0.000002 -0.000001 -0.000001 0.745632 18.617953 11.464005 10.470885 23.420182 38.496667 0.000583 97.845916 -0.000575 -34.645373 -20.052527 22.196341 20.481442 7.494533 18.827094 4.158009 -12.187042 -33.819907 -0.000001 -0.000001 0.000001 -0.887453 1.428118 12.688131 1.917792 -3.767737 53.940121 0.000001 -0.000001 0.000001 0.775396 -5.203196 54.632006 5.567247 -4.567556 101.281296 -0.000000 -0.000002 0.000005 6.905712 -8.529103 63.920592 2.910683 -4.317938 67.952978 0.000001 0.000001 -0.000000 8.374494 -8.171106 74.000708 2.173678 -3.940952 57.745418 0.000000 0.000003 0.000001 -0.000001 0.000001 0.000001 -0.000001 0.000002 0.000006 -0.000001 0.000000 0.000001 -0.000001 0.000003 -0.000003 -0.000000 0.000003 -0.000002 -0.000001 0.000003 -0.000003 -0.000000 0.000003 -0.000000 0.000000 -0.000000 -0.000000 0.000000 -0.000000 -0.000000 0.000000 -0.000000 -0.000000 0.000000 -0.000000 -0.000000 0.000000 -0.000000 -0.000000 0.000000 -0.000000 -0.000000 0.000000 -0.000000 -0.000000 0.000000 0.000001 -0.000000 -0.000001 -0.000000 -0.000000 
-0.332831 93.173065 3.751553 -7.051839 -7.062785 2.542313 -0.000000 0.000000 0.000000 -14.084096 11.030481 8.274398 19.014536 6.500586 0.603177 3.421926 0.985456 -7.363823 0.000000 -0.000000 -0.000000 0.000000 0.000001 -0.000000 5.085074 -15.410041 -6.607642 25.394286 -8.478485 -3.009682 -22.889149 -6.878900 9.117656 0.000000 -0.000002 -0.000000 -0.000000 -0.000002 -0.000000 5.523315 2.123676 -2.029881 1.491504 0.797566 -0.664519 1.489278 0.811077 -0.634155 0.830881 0.877140 0.365070 0.830931 0.877141 0.365068 -0.000000 -0.000000 -0.000000 0.831067 0.877143 0.365066 0.830856 0.877140 0.365069 -0.000001 0.000000 -0.000000 -0.000000 -0.000000 -0.000000 0.045610 -13.187027 -17.549775 5.272002 -0.641117 -41.848712 0.000171 -87.182549 0.000202 -124.296916 -2.431826 13.995314 -12.800127 -17.470126 4.121649 1.062918 0.855438 -1.399303 0.000000 -0.000003 -0.000003 -3.532539 4.254367 -63.954592 3.402085 5.315526 -65.218942 -0.000001 0.000000 -0.000001 2.447345 7.300860 -69.364314 3.297844 5.266338 -64.088669 -0.000000 -0.000000 0.000001 4.717033 8.075477 -77.582275 2.056298 4.456874 -49.517676 -0.000002 0.000001 0.000003 6.410355 8.363754 -80.414583 1.722701 4.149868 -45.074392 -0.000002 -0.000002 -0.000000 0.000000 -0.000001 -0.000000 0.000000 -0.000001 -0.000000 -0.000001 -0.000001 -0.000000 -0.000001 0.000000 0.000000 -0.000001 0.000000 0.000001 -0.000001 0.000000 0.000000 -0.000000 -0.000000 0.000000 0.727473 18.780607 11.455983 10.183645 23.345038 38.519572 0.000459 97.911431 -0.000385 -34.613736 -20.056391 22.243409 20.510951 7.553932 18.773965 4.176784 -12.264388 -33.736586 0.000001 0.000001 -0.000000 -0.888316 1.426748 12.702145 1.919289 -3.768829 53.963016 -0.000003 0.000003 -0.000004 0.792599 -5.216591 54.671027 5.567261 -4.567569 101.281303 0.000001 0.000002 0.000007 6.910137 -8.527561 63.960883 2.914762 -4.319582 68.007060 0.000001 0.000001 -0.000001 8.373009 -8.167705 74.032373 2.173990 -3.941171 57.750240 -0.000001 -0.000002 -0.000001 0.000001 0.000000 -0.000000 0.000001 0.000002 0.000003 0.000001 0.000000 -0.000000 0.000003 0.000000 -0.000005 0.000004 0.000001 -0.000004 0.000003 0.000000 -0.000005 0.000004 0.000001 -0.000003 0.000000 -0.000000 0.000000 0.000000 -0.000000 0.000000 0.000000 -0.000000 0.000000 0.000000 -0.000000 0.000000 0.000000 -0.000000 0.000000 0.000000 -0.000000 0.000000 0.000000 -0.000000 0.000000 0.000000 -0.000000 -0.000000 -0.000000 0.000000 0.000000 
-0.349515 92.913704 3.581699 -6.867410 -7.464184 2.543587 -0.000000 0.000000 0.000000 -15.138979 11.004848 8.741269 20.703630 6.391370 0.168479 2.669805 1.313300 -7.294375 -0.000000 0.000000 -0.000000 0.000000 -0.000000 0.000000 3.644062 -15.281899 -6.795952 27.291395 -8.130398 -3.345562 -23.627899 -6.998896 9.189531 0.000000 -0.000003 -0.000000 -0.000000 0.000000 -0.000002 5.680294 2.217956 -2.115692 1.497198 0.829594 -0.686609 1.494611 0.843376 -0.656663 0.759282 0.873849 0.368856 0.759282 0.873850 0.368855 -0.000000 0.000000 0.000000 0.759281 0.873849 0.368856 0.759351 0.873850 0.368854 -0.000001 0.000000 -0.000000 -0.000000 0.000000 0.000000 0.019088 -13.442419 -17.533396 5.131595 -0.082259 -41.765692 0.000409 -87.611349 0.000443 -124.315249 -2.637445 13.834788 -12.800117 -17.470094 4.121648 1.068383 0.884947 -1.395530 0.000002 -0.000003 -0.000007 -3.532550 4.254367 -63.954579 3.402093 5.315517 -65.218936 -0.000001 -0.000000 0.000001 2.447340 7.300878 -69.364321 3.297865 5.266360 -64.088683 0.000000 -0.000000 -0.000002 4.717030 8.075497 -77.582275 2.056303 4.456872 -49.517686 -0.000000 -0.000002 0.000001 6.410340 8.363759 -80.414570 1.722711 4.149877 -45.074399 -0.000001 -0.000002 -0.000001 -0.000000 -0.000000 -0.000002 -0.000000 -0.000000 -0.000002 -0.000001 -0.000001 -0.000002 -0.000000 0.000001 0.000001 0.000000 0.000001 0.000001 -0.000000 0.000001 0.000001 -0.000001 0.000001 0.000001 0.711965 18.907237 11.447063 9.822714 23.441559 38.482946 -0.000493 97.926246 0.000477 -34.401928 -20.036164 22.406640 20.559566 7.651443 18.686518 4.208076 -12.391310 -33.599357 -0.000003 -0.000002 -0.000001 -0.889827 1.424484 12.725186 1.921783 -3.770621 54.000613 -0.000003 0.000001 0.000001 0.820830 -5.238543 54.735169 5.567254 -4.567559 101.281296 0.000001 -0.000001 -0.000002 6.917327 -8.525053 64.027074 2.921451 -4.322282 68.095975 -0.000003 0.000001 0.000000 8.364848 -8.160579 74.084091 2.174929 -3.941748 57.763887 0.000000 0.000002 -0.000002 0.000003 -0.000001 -0.000001 0.000003 -0.000001 -0.000002 0.000003 -0.000001 -0.000003 0.000000 -0.000001 0.000003 0.000001 -0.000001 0.000001 0.000000 -0.000001 0.000003 0.000001 -0.000001 0.000003 0.000000 -0.000000 -0.000000 0.000000 -0.000000 -0.000000 0.000000 -0.000000 -0.000000 0.000000 -0.000000 -0.000000 0.000000 -0.000000 -0.000000 0.000000 -0.000000 -0.000000 0.000000 -0.000000 -0.000000 -0.000000 -0.000000 -0.000000 -0.000000 0.000000 0.000000 
